<svg id="visual" viewBox="0 0 900 600" width="900" height="600" xmlns="http://www.w3.org/2000/svg" xmlns:xlink="http://www.w3.org/1999/xlink" version="1.1"><rect x="0" y="0" width="900" height="600" fill="#ffffff"></rect><path d="M0 426L21.5 438C43 450 86 474 128.8 486.3C171.7 498.7 214.3 499.3 257.2 479C300 458.7 343 417.3 385.8 410.5C428.7 403.7 471.3 431.3 514.2 449.7C557 468 600 477 642.8 473C685.7 469 728.3 452 771.2 453.3C814 454.7 857 474.3 878.5 484.2L900 494L900 601L878.5 601C857 601 814 601 771.2 601C728.3 601 685.7 601 642.8 601C600 601 557 601 514.2 601C471.3 601 428.7 601 385.8 601C343 601 300 601 257.2 601C214.3 601 171.7 601 128.8 601C86 601 43 601 21.5 601L0 601Z" fill="#0066ff" stroke-linecap="round" stroke-linejoin="miter"></path></svg>